<svg width="10" height="12" viewBox="0 0 10 12" fill="none" xmlns="http://www.w3.org/2000/svg">
<path d="M9.47131 6.19532C9.59629 6.32034 9.6665 6.48988 9.6665 6.66666C9.6665 6.84343 9.59629 7.01297 9.47131 7.13799L5.47131 11.138C5.34629 11.263 5.17676 11.3332 4.99998 11.3332C4.8232 11.3332 4.65366 11.263 4.52865 11.138L0.528646 7.13799C0.407207 7.01225 0.340011 6.84385 0.34153 6.66906C0.343048 6.49426 0.413161 6.32705 0.536767 6.20344C0.660373 6.07984 0.827581 6.00973 1.00238 6.00821C1.17718 6.00669 1.34558 6.07388 1.47131 6.19532L4.33331 9.05732L4.33331 1.33332C4.33331 1.15651 4.40355 0.986943 4.52857 0.861919C4.6536 0.736895 4.82317 0.666656 4.99998 0.666656C5.17679 0.666656 5.34636 0.736895 5.47138 0.861919C5.59641 0.986943 5.66665 1.15651 5.66665 1.33332L5.66665 9.05732L8.52865 6.19532C8.65366 6.07034 8.8232 6.00013 8.99998 6.00013C9.17676 6.00013 9.34629 6.07034 9.47131 6.19532Z" fill="#BD0D0D"/>
</svg>
