<svg width="10" height="12" viewBox="0 0 10 12" fill="none" xmlns="http://www.w3.org/2000/svg">
<path d="M0.528687 5.80468C0.403706 5.67966 0.333496 5.51012 0.333496 5.33334C0.333496 5.15657 0.403706 4.98703 0.528687 4.86201L4.52869 0.86201C4.65371 0.73703 4.82324 0.66682 5.00002 0.66682C5.1768 0.66682 5.34634 0.73703 5.47135 0.86201L9.47135 4.86201C9.59279 4.98775 9.65999 5.15615 9.65847 5.33094C9.65695 5.50574 9.58684 5.67295 9.46323 5.79656C9.33963 5.92016 9.17242 5.99027 8.99762 5.99179C8.82282 5.99331 8.65442 5.92612 8.52869 5.80468L5.66669 2.94268V10.6667C5.66669 10.8435 5.59645 11.0131 5.47143 11.1381C5.3464 11.2631 5.17683 11.3333 5.00002 11.3333C4.82321 11.3333 4.65364 11.2631 4.52862 11.1381C4.40359 11.0131 4.33335 10.8435 4.33335 10.6667V2.94268L1.47135 5.80468C1.34634 5.92966 1.1768 5.99987 1.00002 5.99987C0.823244 5.99987 0.653706 5.92966 0.528687 5.80468Z" fill="#189825"/>
</svg>
