<svg width="243" height="270" viewBox="0 0 243 270" fill="none" xmlns="http://www.w3.org/2000/svg">
<path d="M3.05309 214.427L79.4441 258.527C80.3834 259.004 81.4218 259.252 82.4751 259.252C83.5284 259.252 84.5668 259.004 85.5061 258.527L230.147 175.01C231.82 174.044 231.82 172.476 230.147 171.51L153.749 127.41C152.81 126.934 151.771 126.686 150.718 126.686C149.665 126.686 148.626 126.934 147.687 127.41L3.05309 210.927C1.38009 211.9 1.38009 213.461 3.05309 214.427Z" fill="#696F8C"/>
<path d="M44.3392 234.916C45.6411 235.576 47.0799 235.919 48.5392 235.919C49.9985 235.919 51.4373 235.576 52.7392 234.916C55.0632 233.572 55.0632 231.416 52.7392 230.058C51.4373 229.399 49.9985 229.056 48.5392 229.056C47.0799 229.056 45.6411 229.399 44.3392 230.058C42.0152 231.402 42.0152 233.6 44.3392 234.916Z" fill="#4A4D58"/>
<path d="M79.444 258.534L3.05297 214.434C1.55497 213.573 1.40097 212.229 2.57697 211.263C1.8304 211.855 1.21693 212.597 0.776666 213.441C0.336398 214.285 0.0792334 215.213 0.0219727 216.163V219.012C0.0783311 220.064 0.382216 221.088 0.908904 222C1.43559 222.913 2.1702 223.688 3.05297 224.262L79.444 268.362C80.3788 268.849 81.4217 269.089 82.475 269.062V259.255C81.4198 259.276 80.3767 259.028 79.444 258.534Z" fill="#7E8295"/>
<path d="M230.147 184.859C231.029 184.284 231.763 183.509 232.29 182.596C232.816 181.684 233.121 180.661 233.178 179.609V176.76C233.119 175.81 232.86 174.882 232.419 174.038C231.978 173.193 231.363 172.451 230.616 171.86C231.799 172.826 231.645 174.17 230.147 175.038L85.5061 258.534C84.572 259.022 83.5286 259.263 82.4751 259.234V269.09C83.5286 269.119 84.572 268.878 85.5061 268.39L230.147 184.859Z" fill="#4A4D58"/>
<path d="M92.0372 249.393L19.9372 207.757C18.9292 207.176 18.9292 206.238 19.9372 205.657L138.531 137.148C139.095 136.861 139.719 136.712 140.351 136.712C140.984 136.712 141.607 136.861 142.171 137.148L214.306 178.777C215.314 179.351 215.314 180.296 214.306 180.877L95.6702 249.393C95.1075 249.679 94.485 249.829 93.8537 249.829C93.2223 249.829 92.5998 249.679 92.0372 249.393Z" fill="#FAFAFA"/>
<path d="M73.284 193.371L115.935 217.99L89.013 233.537C88.5423 233.772 88.0235 233.894 87.4975 233.894C86.9715 233.894 86.4526 233.772 85.982 233.537L46.362 210.661C46.1791 210.599 46.0203 210.481 45.9078 210.324C45.7953 210.167 45.7349 209.979 45.7349 209.786C45.7349 209.593 45.7953 209.405 45.9078 209.248C46.0203 209.091 46.1791 208.973 46.362 208.911L73.284 193.371Z" fill="#E6E6E6"/>
<path d="M115.9 217.99L110.874 198.012C110.76 197.535 110.495 197.108 110.118 196.794C109.737 196.471 109.265 196.273 108.767 196.227L73.2559 193.371L115.9 217.99Z" fill="#E0E0E0"/>
<path d="M115.9 217.99L77.729 216.415C77.2719 216.397 76.8362 216.216 76.5002 215.906C76.1641 215.596 75.9496 215.176 75.895 214.721L73.249 193.364L115.9 217.99Z" fill="#E0E0E0"/>
<path d="M115.9 217.99L77.729 216.415C77.2719 216.397 76.8362 216.216 76.5002 215.906C76.1641 215.596 75.9496 215.176 75.895 214.721L73.249 193.364L77.96 214.364C78.0025 214.551 78.1034 214.72 78.2481 214.846C78.3928 214.972 78.5739 215.048 78.765 215.064L115.9 217.99Z" fill="#FAFAFA"/>
<path d="M81.8101 216.352L87.5011 234.412L89.0131 233.537L81.8101 216.352Z" fill="#FAFAFA"/>
<path d="M44.8501 209.786L46.3621 208.911L76.1261 213.069L44.8501 209.786Z" fill="#FAFAFA"/>
<path d="M97.546 184.39L131.475 203.99C131.945 204.228 132.464 204.352 132.991 204.352C133.517 204.352 134.036 204.228 134.506 203.99L182.659 176.2C182.842 176.138 183.001 176.021 183.113 175.864C183.226 175.707 183.286 175.519 183.286 175.325C183.286 175.132 183.226 174.944 183.113 174.787C183.001 174.63 182.842 174.512 182.659 174.45L148.73 154.85C148.26 154.612 147.741 154.488 147.215 154.488C146.688 154.488 146.169 154.612 145.699 154.85L97.546 182.64C97.3632 182.703 97.2044 182.82 97.0919 182.977C96.9794 183.134 96.9189 183.322 96.9189 183.515C96.9189 183.709 96.9794 183.897 97.0919 184.054C97.2044 184.211 97.3632 184.328 97.546 184.39Z" fill="#E6E6E6"/>
<path d="M124.524 181.8C124.12 181.172 123.88 180.452 123.827 179.707C123.775 178.962 123.911 178.216 124.223 177.537C124.853 176.137 126.225 174.793 128.332 173.582C130.642 172.224 133.192 171.323 135.843 170.929C138.429 170.556 141.061 170.651 143.613 171.209C146.245 171.782 148.771 172.767 151.096 174.128C153.345 175.421 154.876 176.755 155.688 178.132C156.084 178.718 156.321 179.398 156.375 180.104C156.429 180.81 156.299 181.517 155.996 182.157C155.38 183.466 154.085 184.691 152.125 185.825C150.246 186.961 148.131 187.65 145.944 187.841C144.123 188.018 142.291 187.643 140.687 186.763C140.399 186.638 140.142 186.454 139.93 186.222C139.719 185.991 139.56 185.717 139.462 185.419C139.415 185.161 139.438 184.896 139.528 184.65C139.618 184.404 139.771 184.186 139.973 184.019C138.845 184.111 137.71 184.033 136.606 183.788C135.523 183.555 134.484 183.153 133.526 182.598C131.911 181.665 131.067 180.652 130.992 179.56C130.917 178.468 131.69 177.465 133.309 176.55C135.263 175.404 137.499 174.83 139.763 174.891C142.075 174.942 144.336 175.586 146.329 176.76C147.154 177.22 147.889 177.825 148.499 178.545C148.984 179.079 149.3 179.743 149.409 180.456L143.109 184.11C142.598 184.404 142.318 184.663 142.276 184.887C142.234 185.111 142.416 185.349 142.815 185.587C143.687 186.01 144.684 186.095 145.615 185.825C146.986 185.504 148.297 184.968 149.5 184.236C151.082 183.326 152.083 182.346 152.503 181.317C152.713 180.818 152.794 180.273 152.736 179.735C152.678 179.196 152.485 178.681 152.174 178.237C151.329 177.03 150.205 176.046 148.898 175.367C146.212 173.778 143.175 172.876 140.057 172.742C136.894 172.653 133.772 173.474 131.062 175.108C129.34 176.102 128.234 177.152 127.744 178.258C127.498 178.773 127.39 179.342 127.429 179.912C127.468 180.481 127.654 181.03 127.968 181.506C128.816 182.754 129.961 183.772 131.3 184.467C132.19 184.976 133.127 185.396 134.1 185.72C135.007 186.034 135.946 186.245 136.9 186.35C137.002 186.358 137.101 186.384 137.194 186.427C137.243 186.427 137.243 186.518 137.194 186.609L136.27 187.904C136.232 187.954 136.187 187.999 136.137 188.037C136.001 188.084 135.853 188.084 135.717 188.037C134.563 187.891 133.427 187.624 132.329 187.239C131.181 186.858 130.074 186.363 129.025 185.762C126.855 184.6 125.357 183.235 124.524 181.8ZM139.119 182.409C140.084 182.531 141.064 182.348 141.919 181.884L145.58 179.784C145.146 179.049 144.506 178.457 143.739 178.083C142.57 177.398 141.243 177.029 139.889 177.012C138.54 176.989 137.21 177.337 136.046 178.02C135.024 178.608 134.527 179.189 134.555 179.763C134.555 180.337 135.129 180.932 136.2 181.548C137.098 182.046 138.094 182.342 139.119 182.416V182.409Z" fill="#FAFAFA"/>
<path d="M186.082 153.031C186.37 153.179 186.689 153.257 187.013 153.257C187.337 153.257 187.656 153.179 187.944 153.031C188.055 152.992 188.151 152.92 188.22 152.824C188.288 152.728 188.324 152.613 188.324 152.495C188.324 152.378 188.288 152.263 188.22 152.167C188.151 152.071 188.055 151.999 187.944 151.96C187.654 151.817 187.336 151.742 187.013 151.742C186.69 151.742 186.371 151.817 186.082 151.96C185.971 151.999 185.874 152.071 185.806 152.167C185.738 152.263 185.701 152.378 185.701 152.495C185.701 152.613 185.738 152.728 185.806 152.824C185.874 152.92 185.971 152.992 186.082 153.031Z" fill="#4A4D58"/>
<path d="M189.05 161.458C189.626 161.751 190.263 161.904 190.909 161.904C191.555 161.904 192.192 161.751 192.767 161.458C193.796 160.87 193.796 159.904 192.767 159.316C192.192 159.023 191.555 158.87 190.909 158.87C190.263 158.87 189.626 159.023 189.05 159.316C188 159.904 188 160.87 189.05 161.458Z" fill="#4A4D58"/>
<path d="M186.432 157.727C187.132 157.328 187.083 156.67 186.348 156.25L174.126 149.187C173.733 148.977 173.296 148.863 172.85 148.856C172.405 148.849 171.964 148.948 171.564 149.145C170.864 149.537 170.92 150.202 171.648 150.622L183.87 157.678C184.264 157.886 184.7 157.998 185.145 158.007C185.59 158.015 186.031 157.92 186.432 157.727Z" fill="#4A4D58"/>
<path d="M27.9658 68.7081C28.0045 67.9564 28.2207 67.2244 28.5966 66.5723C28.9726 65.9202 29.4977 65.3663 30.1288 64.9561L140.89 1.01111C141.561 0.669364 142.303 0.491211 143.056 0.491211C143.809 0.491211 144.552 0.669364 145.223 1.01111L147.659 2.41111C148.289 2.82063 148.814 3.37336 149.189 4.02421C149.565 4.67506 149.782 5.40556 149.822 6.15612V91.0661C149.779 91.8168 149.561 92.5471 149.185 93.1985C148.81 93.85 148.287 94.4046 147.659 94.8181L36.8978 158.763C36.227 159.102 35.4862 159.278 34.7348 159.278C33.9835 159.278 33.2426 159.102 32.5718 158.763L30.1288 157.363C29.5008 156.95 28.9781 156.395 28.6025 155.744C28.2269 155.092 28.0089 154.362 27.9658 153.611V68.7081Z" fill="#5396F5"/>
<path opacity="0.4" d="M28.5957 66.5731L34.7417 70.1151L149.192 4.03512C148.827 3.37646 148.302 2.82033 147.666 2.41812L145.216 1.01812C144.546 0.676434 143.805 0.498291 143.053 0.498291C142.301 0.498291 141.56 0.676434 140.89 1.01812L30.1357 64.9561C29.4901 65.3516 28.9592 65.909 28.5957 66.5731Z" fill="white"/>
<path opacity="0.1" d="M27.9658 68.7016V153.598C28.0058 154.35 28.2233 155.082 28.6005 155.734C28.9776 156.386 29.5037 156.94 30.1358 157.35L32.5718 158.75C32.7602 158.859 32.9596 158.948 33.1668 159.016C33.4561 159.111 33.7538 159.179 34.0558 159.219C34.6247 159.292 35.2019 159.271 35.7638 159.156C35.9059 159.127 36.0462 159.089 36.1838 159.044C36.2732 159.02 36.3599 158.987 36.4428 158.946C36.2791 159.016 36.1029 159.052 35.9248 159.052C35.7467 159.052 35.5705 159.016 35.4068 158.946C35.18 158.794 34.9984 158.584 34.8813 158.337C34.7642 158.091 34.716 157.817 34.7418 157.546V72.6006C34.7203 72.2155 34.8166 71.8331 35.0179 71.5042C35.2193 71.1752 35.5161 70.9155 35.8688 70.7596L34.7418 70.1016L28.5958 66.5596C28.2079 67.2087 27.9911 67.9457 27.9658 68.7016Z" fill="#11183C"/>
<path opacity="0.2" d="M34.7418 70.1155L86.0378 89.2815C87.8119 89.9414 89.7577 89.9779 91.5553 89.3851C93.3529 88.7922 94.8953 87.6053 95.9288 86.0195L104.168 73.4195L149.598 3.81152L105.806 73.8745L149.822 91.1015C149.777 91.8705 149.536 92.6152 149.122 93.2645L105.687 74.0705L96.1108 89.4005C95.0486 91.1019 93.4081 92.3629 91.4908 92.9519C89.5734 93.5409 87.508 93.4182 85.6738 92.6065L78.8628 89.5965L35.3998 158.939C35.1729 158.787 34.9914 158.577 34.8743 158.33C34.7572 158.084 34.709 157.81 34.7348 157.539V156.139L78.6458 89.5405L34.7418 70.1155Z" fill="#11183C"/>
<path d="M47.4329 50.2911L39.8589 45.9301L39.7889 45.8881C36.4289 43.9911 31.8229 44.2781 26.7199 47.2181C16.4509 53.1471 8.12793 67.5671 8.12793 79.4181C8.12793 85.3331 10.2279 89.4981 13.5529 91.4441L20.4409 95.3711L22.0859 92.6201C23.9599 92.194 25.7584 91.4859 27.4199 90.5201C37.6889 84.5911 46.0119 70.1711 46.0119 58.3201C46.0111 56.7204 45.816 55.1268 45.4309 53.5741L47.4329 50.2911Z" fill="#696F8C"/>
<path d="M33.9017 51.3551C23.6257 57.2841 15.3027 71.7041 15.3027 83.5551C15.3027 95.4061 23.6257 100.222 33.8947 94.2931C44.1637 88.3641 52.4937 73.9371 52.4937 62.0931C52.4937 50.2491 44.1707 45.4191 33.9017 51.3551Z" fill="#7E8295"/>
<path d="M28.1201 74.2385C28.0539 74.17 28.0059 74.0862 27.9802 73.9945C27.9546 73.9029 27.9521 73.8063 27.9731 73.7135C28.0083 73.4609 28.1044 73.2207 28.2531 73.0135L34.0001 64.4805C34.1471 64.2775 34.2871 64.0745 34.4411 63.8785C34.5692 63.6953 34.7336 63.5404 34.9241 63.4235L37.0241 62.2335C37.0937 62.1817 37.1771 62.1517 37.2637 62.1471C37.3503 62.1425 37.4364 62.1636 37.5111 62.2077C37.5858 62.2517 37.6459 62.3169 37.6838 62.3949C37.7216 62.473 37.7357 62.5605 37.7241 62.6465V82.3445C37.7129 82.5925 37.6382 82.8336 37.507 83.0445C37.3912 83.2625 37.2197 83.4461 37.0101 83.5765L34.8681 84.8085C34.7968 84.8625 34.712 84.8957 34.623 84.9043C34.534 84.913 34.4444 84.8967 34.3641 84.8575C34.2908 84.8064 34.2326 84.7366 34.1956 84.6553C34.1587 84.574 34.1443 84.4842 34.1541 84.3955V69.3385L30.4091 74.8895C30.2853 75.0925 30.1054 75.2554 29.891 75.3585C29.8135 75.3975 29.7266 75.4143 29.6401 75.4068C29.5536 75.3994 29.4708 75.3681 29.4011 75.3165L28.1201 74.2385Z" fill="#FAFAFA"/>
<path d="M199.627 142.131V140.878H199.935C200.399 140.027 201.106 139.333 201.965 138.883C203.716 137.996 205.651 137.534 207.614 137.534C209.577 137.534 211.512 137.996 213.263 138.883C214.122 139.333 214.829 140.027 215.293 140.878H215.601V142.089C215.601 143.286 214.845 144.49 213.263 145.407C211.516 146.287 209.587 146.745 207.631 146.744C205.675 146.742 203.746 146.282 202 145.4C200.397 144.504 199.62 143.3 199.627 142.131Z" fill="#4A4D58"/>
<path d="M213.263 137.616C211.513 136.726 209.577 136.262 207.614 136.262C205.651 136.262 203.715 136.726 201.965 137.616C198.843 139.415 198.843 142.334 201.965 144.14C203.716 145.027 205.651 145.489 207.614 145.489C209.577 145.489 211.512 145.027 213.263 144.14C216.385 142.334 216.385 139.415 213.263 137.616Z" fill="#7E8295"/>
<path d="M209.7 92.9004V140.346C209.683 140.527 209.619 140.7 209.513 140.848C209.407 140.996 209.264 141.113 209.098 141.186C208.647 141.417 208.148 141.538 207.642 141.538C207.136 141.538 206.637 141.417 206.186 141.186C206.02 141.113 205.877 140.996 205.771 140.848C205.665 140.7 205.601 140.527 205.584 140.346V92.9004H209.7Z" fill="#696F8C"/>
<path d="M205.556 98.0664V99.5504L209.672 101.923V100.446L205.556 98.0664Z" fill="#4A4D58"/>
<path d="M231.813 80.335L231.463 81.035L227.697 88.581L225.912 92.2L219.864 104.331L219.199 105.668H219.08C218.837 105.676 218.595 105.621 218.38 105.507L191.423 89.925C191.222 89.7979 191.054 89.6251 190.932 89.4208C190.811 89.2164 190.739 88.9863 190.723 88.749V78.333C190.723 73.139 194.146 66.951 198.367 64.515C200.369 63.36 202.182 63.269 203.547 64.032L231.813 80.335Z" fill="#7E8295"/>
<path d="M226.724 80.8877C225.016 81.5177 218.821 86.6347 218.821 94.6987C218.821 101.475 218.821 104.989 218.821 105.626H219.073H219.192L219.857 104.289L225.912 92.1997L227.697 88.6157L228.11 87.7967L226.724 80.8877Z" fill="#696F8C"/>
<path d="M234.032 97.0997C233.965 97.2139 233.868 97.3081 233.752 97.3727L233.682 97.4147L219.759 105.5C219.586 105.592 219.395 105.644 219.199 105.654H219.08V94.6987C219.115 92.7166 219.526 90.7592 220.291 88.9307L220.991 89.3227L225.926 92.1717L233.584 96.6027L233.976 96.8267C234.018 96.8564 234.048 96.9013 234.058 96.952C234.069 97.0028 234.059 97.0556 234.032 97.0997Z" fill="#696F8C"/>
<path d="M231.813 80.335C230.462 79.635 228.677 79.754 226.724 80.888C224.327 82.3944 222.39 84.53 221.124 87.062C220.803 87.6688 220.516 88.2927 220.263 88.931C219.498 90.7596 219.087 92.717 219.052 94.699V105.647H219.171C219.367 105.638 219.558 105.585 219.731 105.493L233.647 97.45L233.717 97.408C233.827 97.3356 233.922 97.243 233.997 97.135C234.193 96.8896 234.306 96.588 234.319 96.274V85.9C234.354 83.1 233.374 81.161 231.813 80.335ZM233.367 96.715L220.067 104.415C219.955 104.478 219.864 104.415 219.864 104.296V94.699C219.9 92.8536 220.277 91.0308 220.977 89.323C220.985 89.2859 220.999 89.2503 221.019 89.218C221.287 88.5421 221.596 87.8829 221.943 87.244C223.122 84.9186 224.91 82.9566 227.116 81.567C227.971 81.0247 228.954 80.718 229.965 80.678C230.487 80.6722 231.002 80.7974 231.463 81.042C232.793 81.742 233.563 83.471 233.563 85.872V96.372C233.56 96.4405 233.54 96.5072 233.506 96.5667C233.472 96.6263 233.424 96.677 233.367 96.715Z" fill="#7E8295"/>
<path d="M233.57 85.9003V96.6313L220.97 89.3513C220.978 89.3142 220.992 89.2787 221.012 89.2463C222.363 85.8723 224.638 83.0093 227.109 81.5953C227.964 81.053 228.947 80.7463 229.958 80.7063C232.191 80.6783 233.57 82.6733 233.57 85.9003Z" fill="#4A4D58"/>
<path d="M210.512 91.22L211.625 90.576C211.863 90.4687 212.124 90.4258 212.383 90.4516C212.643 90.4774 212.891 90.571 213.102 90.723C213.714 91.1222 214.222 91.6598 214.587 92.2922C214.952 92.9246 215.163 93.634 215.202 94.363C215.228 94.6191 215.185 94.8773 215.08 95.1119C214.974 95.3466 214.809 95.5494 214.6 95.7L213.571 96.295L213.382 95.98C213.171 95.9336 212.968 95.8558 212.78 95.749C212.169 95.3499 211.66 94.8123 211.295 94.1799C210.931 93.5475 210.72 92.8381 210.68 92.109C210.682 91.9276 210.703 91.7469 210.743 91.57L210.512 91.22Z" fill="#E0E0E0"/>
<path d="M212.045 91.3395C212.656 91.7376 213.165 92.2739 213.529 92.9051C213.894 93.5363 214.105 94.2446 214.145 94.9725C214.145 96.3165 213.2 96.8555 212.045 96.1905C211.434 95.7909 210.926 95.2533 210.561 94.621C210.196 93.9887 209.985 93.2794 209.945 92.5505C209.938 91.2135 210.883 90.6675 212.045 91.3395Z" fill="#FAFAFA"/>
<path d="M212.045 94.3425C211.884 94.3425 211.729 94.2783 211.614 94.1641C211.5 94.0499 211.436 93.895 211.436 93.7335V76.5065C211.436 76.3449 211.5 76.19 211.614 76.0758C211.729 75.9616 211.884 75.8975 212.045 75.8975C212.207 75.8975 212.361 75.9616 212.476 76.0758C212.59 76.19 212.654 76.3449 212.654 76.5065V93.7335C212.654 93.895 212.59 94.0499 212.476 94.1641C212.361 94.2783 212.207 94.3425 212.045 94.3425Z" fill="#EBEBEB"/>
<path d="M211.436 78.2065L205.332 74.6855L207.243 78.3605L205.332 79.8306L211.436 83.3585V78.2065Z" fill="#97D0F1"/>
<path d="M230.392 89.4003C230.388 89.3067 230.361 89.2155 230.315 89.134C230.269 89.0525 230.204 88.983 230.126 88.9313L216.322 80.9653C216.238 80.9239 216.146 80.9024 216.052 80.9024C215.959 80.9024 215.867 80.9239 215.783 80.9653L215.475 81.1403C215.397 81.192 215.332 81.2614 215.286 81.3429C215.24 81.4244 215.213 81.5157 215.209 81.6093V92.2003C215.215 92.2935 215.242 92.3842 215.288 92.4655C215.334 92.5467 215.398 92.6164 215.475 92.6693L229.3 100.6C229.384 100.642 229.476 100.663 229.569 100.663C229.663 100.663 229.755 100.642 229.839 100.6L230.147 100.425C230.225 100.374 230.29 100.304 230.336 100.223C230.382 100.141 230.409 100.05 230.413 99.9563L230.392 89.4003Z" fill="#F0F0F0"/>
<path d="M230.315 89.12L229.552 89.561L215.3 81.329C215.346 81.2473 215.411 81.1777 215.489 81.126L215.797 80.951C215.88 80.9063 215.972 80.8829 216.066 80.8829C216.16 80.8829 216.253 80.9063 216.336 80.951L230.14 88.917C230.213 88.9703 230.273 89.0398 230.315 89.12Z" fill="#FAFAFA"/>
<path d="M230.392 89.4001V99.9771C230.388 100.071 230.361 100.162 230.315 100.243C230.269 100.325 230.204 100.394 230.126 100.446L229.818 100.621L229.748 100.656H229.636C229.564 100.67 229.491 100.67 229.419 100.656H229.37H229.335C229.356 100.667 229.378 100.672 229.401 100.672C229.425 100.672 229.447 100.667 229.468 100.656C229.496 100.637 229.519 100.611 229.534 100.58C229.549 100.549 229.555 100.515 229.552 100.481V89.8691C229.554 89.8211 229.541 89.7737 229.514 89.7336C229.488 89.6934 229.45 89.6625 229.405 89.6451L229.552 89.561L230.315 89.1201C230.365 89.2049 230.392 89.3015 230.392 89.4001Z" fill="#E0E0E0"/>
<path d="M229.552 89.561L223.154 91.948C222.933 92.0294 222.691 92.0336 222.467 91.9599C222.243 91.8861 222.051 91.7389 221.922 91.542L220.9 89.974L215.237 81.294L220.69 90.03L215.209 92.2C215.214 92.2944 215.243 92.3859 215.293 92.466L220.711 90.072L221.901 91.983C222.033 92.1956 222.238 92.3532 222.477 92.4265C222.717 92.4999 222.974 92.4841 223.203 92.382L224.05 92.011L229.468 100.6C229.496 100.581 229.519 100.555 229.534 100.524C229.549 100.493 229.555 100.459 229.552 100.425V100.25L224.078 91.948L229.552 89.561Z" fill="#E0E0E0"/>
<path d="M241.074 91.094L238.274 94.293L238.218 94.363L235.6 97.394C235.444 97.5652 235.265 97.7136 235.068 97.835L220.368 106.305C220.319 106.334 220.264 106.353 220.207 106.361H220.2L225.492 100.25L225.8 99.9C229.703 95.6417 234.179 91.9476 239.1 88.924C241.025 87.811 242.257 87.412 242.726 87.643C243.3 87.958 242.768 89.141 241.074 91.094Z" fill="#696F8C"/>
</svg>
