<svg width="375" height="227" viewBox="0 0 375 227" fill="none" xmlns="http://www.w3.org/2000/svg">
<g clip-path="url(#clip0_63_649)">
<rect width="375" height="227" fill="#0166F4"/>
<g filter="url(#filter0_f_63_649)">
<rect x="124.803" y="53.6587" width="136.731" height="56" rx="28" transform="rotate(-153.019 124.803 53.6587)" fill="url(#paint0_linear_63_649)"/>
</g>
<g filter="url(#filter1_f_63_649)">
<rect x="242" y="103.037" width="281.202" height="122.072" rx="61.0361" transform="rotate(-77.0385 242 103.037)" fill="url(#paint1_linear_63_649)"/>
</g>
<g filter="url(#filter2_f_63_649)">
<rect x="-0.177734" y="53" width="256.71" height="111.44" rx="40" transform="rotate(31.2561 -0.177734 53)" fill="url(#paint2_linear_63_649)"/>
</g>
<g opacity="0.25">
<path d="M-124.178 -878C-151.186 -866.574 -202.709 -828.763 -192.737 -768.93C-161.314 -580.394 580.883 -542.998 502.197 -280.451C423.51 -17.9029 12.1593 -35.8216 37.8687 200.238C63.5781 436.297 442.987 466.681 411.045 698.845C385.491 884.576 208.226 1038.52 122.788 1092.28" stroke="#D7D9E4" stroke-width="3.11629"/>
<path d="M249.055 -750.38C126.085 -744.394 -120.032 -674.431 -120.745 -442.46C-91.0533 -149.306 397.636 -165.332 322.659 109.087C247.683 383.506 -185.185 365.111 -114.215 615.002C-54.625 825.958 313.162 726.373 368.773 898.437C424.688 1068.29 265.379 1207.94 201.458 1256.25" stroke="#376BF5" stroke-width="3.11629"/>
<path d="M229.096 -756.761C110.924 -750.504 -125.465 -682.148 -125.643 -458.784C-95.8645 -170.861 405.5 -184.217 330.338 89.6092C255.176 363.435 -176.616 345.063 -107.909 594.263C-50.0131 806.474 318.355 713.387 369.589 888.456C421.43 1059.1 261.223 1199.47 196.226 1248.05" stroke="#3F71F4" stroke-width="3.11629"/>
<path d="M210.436 -763.142C97.062 -756.613 -129.596 -689.865 -129.24 -475.107C-99.3757 -192.415 414.664 -203.099 339.317 70.1328C263.969 343.365 -166.747 325.017 -100.303 573.525C-44.101 786.991 324.848 700.403 371.704 878.477C419.472 1049.92 258.367 1191 192.294 1239.86" stroke="#4776F3" stroke-width="3.11629"/>
<path d="M191.778 -769.524C83.2022 -762.722 -133.727 -697.582 -132.836 -491.431C-102.885 -213.97 423.83 -221.983 348.297 50.6554C272.764 323.294 -156.876 304.97 -92.6953 552.787C-38.1871 767.508 331.343 687.418 373.821 868.497C417.516 1040.73 255.513 1182.53 188.365 1231.66" stroke="#4F7CF3" stroke-width="3.11629"/>
<path d="M173.123 -775.904C69.3456 -768.83 -137.853 -705.297 -136.429 -507.754C-106.391 -235.524 433 -240.866 357.281 31.1793C281.563 303.224 -147.002 284.924 -85.0841 532.049C-32.2699 748.025 337.841 674.434 375.942 858.518C415.564 1031.55 252.663 1174.06 184.438 1223.46" stroke="#5781F2" stroke-width="3.11629"/>
<path d="M154.471 -782.285C55.4916 -774.94 -141.978 -713.015 -140.019 -524.078C-109.894 -257.079 442.172 -259.75 366.268 11.7018C290.364 283.153 -137.125 264.877 -77.4703 511.31C-26.3502 728.542 344.342 661.449 378.065 848.538C413.613 1022.36 249.815 1165.58 180.514 1215.26" stroke="#5F87F1" stroke-width="3.11629"/>
<path d="M135.82 -788.666C41.6386 -781.048 -146.101 -720.731 -143.608 -540.401C-113.397 -278.632 451.345 -278.632 375.255 -7.77447C299.166 263.083 -127.247 244.831 -69.8555 490.573C-20.4294 709.059 350.844 648.465 380.189 838.559C411.664 1013.18 246.968 1157.11 176.591 1207.06" stroke="#678CF0" stroke-width="3.11629"/>
<path d="M117.174 -795.047C27.791 -787.157 -150.219 -728.447 -147.191 -556.725C-116.894 -300.187 460.523 -297.516 384.248 -27.2514C307.973 243.013 -117.364 224.784 -62.2353 469.835C-14.5033 689.576 357.351 635.481 382.319 828.579C409.72 1003.99 244.126 1148.64 172.674 1198.86" stroke="#6F92EF" stroke-width="3.11629"/>
<path d="M98.5325 -801.428C13.9474 -793.266 -154.332 -736.164 -150.771 -573.048C-120.387 -321.741 469.705 -316.399 393.245 -46.728C316.784 222.943 -107.477 204.738 -54.6111 449.097C-8.57315 670.093 363.863 622.496 384.452 818.6C407.78 994.804 241.288 1140.17 168.76 1190.66" stroke="#7797EE" stroke-width="3.11629"/>
<path d="M79.894 -807.808C0.106961 -799.375 -158.443 -743.88 -154.347 -589.371C-123.877 -343.295 478.891 -335.282 402.245 -66.2046C325.599 202.873 -97.5862 184.692 -46.9838 428.359C-2.6398 650.611 370.377 609.512 386.589 808.621C405.844 985.619 238.454 1131.7 164.85 1182.46" stroke="#7F9DED" stroke-width="3.11629"/>
<path d="M61.262 -814.19C-13.7269 -805.485 -162.547 -751.597 -157.917 -605.696C-127.36 -364.85 488.083 -354.166 411.251 -85.6825C334.42 182.801 -87.6893 164.644 -39.3499 407.62C3.30002 631.127 376.898 596.526 388.732 798.64C403.913 976.432 235.626 1123.23 160.946 1174.26" stroke="#87A2ED" stroke-width="3.11629"/>
<path d="M42.6366 -820.572C-27.5543 -811.594 -166.645 -759.314 -161.481 -622.019C-130.837 -386.405 497.282 -373.05 420.265 -105.16C343.248 162.73 -77.7858 144.597 -31.7094 386.881C9.24647 611.643 383.425 583.541 390.882 788.66C401.99 967.246 232.805 1114.76 157.049 1166.07" stroke="#8FA8EC" stroke-width="3.11629"/>
<path d="M24.0196 -826.952C-41.3731 -817.702 -170.734 -767.03 -165.036 -638.342C-134.305 -407.959 506.489 -391.932 429.286 -124.636C352.084 142.661 -67.8739 124.551 -24.0604 366.144C15.2014 592.161 389.961 570.558 393.041 778.682C400.075 958.061 229.992 1106.29 153.16 1157.87" stroke="#97ADEB" stroke-width="3.11629"/>
<path d="M5.41103 -833.333C-55.1836 -823.811 -174.815 -774.746 -168.582 -654.665C-137.765 -429.513 515.704 -410.815 438.316 -144.112C360.928 122.59 -57.9535 104.505 -16.4031 345.405C21.1647 572.678 396.506 557.573 395.207 768.702C398.168 948.876 227.187 1097.82 149.28 1149.67" stroke="#9FB3EA" stroke-width="3.11629"/>
<path d="M-13.1839 -839.714C-68.9804 -829.92 -178.882 -782.463 -172.115 -670.989C-141.212 -451.068 524.933 -429.699 447.36 -163.59C369.786 102.519 -48.0196 84.4578 -8.73216 324.667C27.1416 553.195 403.064 544.588 397.388 758.722C396.275 939.69 224.396 1089.35 145.413 1141.47" stroke="#A7B8E9" stroke-width="3.11629"/>
<path d="M-31.7644 -846.095C-82.7628 -836.029 -182.934 -790.18 -175.633 -687.313C-144.643 -472.622 534.177 -448.582 456.418 -183.067C378.659 82.4488 -38.0712 64.4109 -1.04678 303.928C33.1329 533.712 409.636 531.603 399.582 748.742C394.396 930.504 221.62 1080.87 141.561 1133.27" stroke="#AFBEE8" stroke-width="3.11629"/>
<path d="M-50.3246 -852.476C-96.5249 -842.138 -186.967 -797.897 -179.131 -703.636C-148.055 -494.177 543.441 -467.465 465.496 -202.543C387.552 62.3787 -28.1025 44.3646 6.65896 283.19C39.1446 514.229 416.229 518.619 401.798 738.763C392.538 921.318 218.864 1072.4 137.729 1125.07" stroke="#B7C3E7" stroke-width="3.11629"/>
<path d="M-68.8595 -858.857C-110.262 -848.246 -190.974 -805.613 -182.604 -719.959C-151.441 -515.73 552.73 -486.348 474.6 -222.02C396.47 42.3087 -18.1085 24.3186 14.39 262.453C45.1815 494.746 422.847 505.635 404.038 728.784C390.705 912.133 216.133 1063.93 133.922 1116.87" stroke="#BFC9E7" stroke-width="3.11629"/>
<path d="M-87.3572 -865.238C-123.961 -854.355 -194.944 -813.329 -186.04 -736.283C-154.79 -537.285 562.056 -505.232 483.741 -241.497C405.425 22.2382 -8.07728 4.27185 22.1582 241.714C51.2557 475.263 429.502 492.65 406.316 718.804C388.909 902.947 213.439 1055.46 130.153 1108.67" stroke="#C7CEE6" stroke-width="3.11629"/>
<path d="M-105.805 -871.619C-137.611 -860.464 -198.863 -821.046 -189.425 -752.606C-158.089 -558.839 571.433 -524.115 492.932 -260.974C414.431 2.16783 2.00423 -15.7747 29.9767 220.976C57.3801 455.78 436.208 479.666 408.643 708.825C387.163 893.762 210.796 1046.99 126.433 1100.48" stroke="#CFD4E5" stroke-width="3.11629"/>
</g>
</g>
<defs>
<filter id="filter0_f_63_649" x="8.604" y="-52.6309" width="135.957" height="100.64" filterUnits="userSpaceOnUse" color-interpolation-filters="sRGB">
<feFlood flood-opacity="0" result="BackgroundImageFix"/>
<feBlend mode="normal" in="SourceGraphic" in2="BackgroundImageFix" result="shape"/>
<feGaussianBlur stdDeviation="2" result="effect1_foregroundBlur_63_649"/>
</filter>
<filter id="filter1_f_63_649" x="250.122" y="-162.878" width="165.792" height="285.174" filterUnits="userSpaceOnUse" color-interpolation-filters="sRGB">
<feFlood flood-opacity="0" result="BackgroundImageFix"/>
<feBlend mode="normal" in="SourceGraphic" in2="BackgroundImageFix" result="shape"/>
<feGaussianBlur stdDeviation="2" result="effect1_foregroundBlur_63_649"/>
</filter>
<filter id="filter2_f_63_649" x="-47.0571" y="63.943" width="255.386" height="206.577" filterUnits="userSpaceOnUse" color-interpolation-filters="sRGB">
<feFlood flood-opacity="0" result="BackgroundImageFix"/>
<feBlend mode="normal" in="SourceGraphic" in2="BackgroundImageFix" result="shape"/>
<feGaussianBlur stdDeviation="2" result="effect1_foregroundBlur_63_649"/>
</filter>
<linearGradient id="paint0_linear_63_649" x1="164.021" y1="253.659" x2="207.74" y2="80.3877" gradientUnits="userSpaceOnUse">
<stop stop-color="#D9D9D9"/>
<stop offset="1" stop-color="#D9D9D9" stop-opacity="0"/>
</linearGradient>
<linearGradient id="paint1_linear_63_649" x1="322.655" y1="539.009" x2="422.928" y2="164.073" gradientUnits="userSpaceOnUse">
<stop stop-color="#D9D9D9"/>
<stop offset="1" stop-color="#D9D9D9" stop-opacity="0"/>
</linearGradient>
<linearGradient id="paint2_linear_63_649" x1="73.4522" y1="450.999" x2="198.117" y2="165.43" gradientUnits="userSpaceOnUse">
<stop stop-color="#D9D9D9"/>
<stop offset="1" stop-color="#D9D9D9" stop-opacity="0"/>
</linearGradient>
<clipPath id="clip0_63_649">
<rect width="375" height="227" fill="white"/>
</clipPath>
</defs>
</svg>
