<svg width="375" height="227" viewBox="0 0 375 227" fill="none" xmlns="http://www.w3.org/2000/svg">
<g clip-path="url(#clip0_62_258)">
<rect width="375" height="227" fill="#0166F4"/>
<g filter="url(#filter0_f_62_258)">
<rect x="124.803" y="53.6587" width="136.731" height="56" rx="28" transform="rotate(-153.019 124.803 53.6587)" fill="url(#paint0_linear_62_258)"/>
</g>
<g filter="url(#filter1_f_62_258)">
<rect x="242" y="103.037" width="281.202" height="122.072" rx="61.0361" transform="rotate(-77.0385 242 103.037)" fill="url(#paint1_linear_62_258)"/>
</g>
<g filter="url(#filter2_f_62_258)">
<rect x="-0.177734" y="53" width="256.71" height="111.44" rx="40" transform="rotate(31.2561 -0.177734 53)" fill="url(#paint2_linear_62_258)"/>
</g>
<g opacity="0.25">
<path d="M-124.178 -689C-151.186 -677.574 -202.709 -639.763 -192.737 -579.93C-161.314 -391.394 580.883 -353.998 502.197 -91.4506C423.51 171.097 12.1593 153.178 37.8687 389.238C63.5781 625.297 442.987 655.681 411.045 887.845C385.491 1073.58 208.226 1227.52 122.788 1281.28" stroke="#D7D9E4" stroke-width="3.11629"/>
<path d="M249.055 -561.38C126.085 -555.394 -120.032 -485.431 -120.745 -253.46C-91.0533 39.6942 397.636 23.6675 322.659 298.087C247.683 572.506 -185.185 554.111 -114.215 804.002C-54.625 1014.96 313.162 915.373 368.773 1087.44C424.688 1257.29 265.379 1396.94 201.458 1445.25" stroke="#376BF5" stroke-width="3.11629"/>
<path d="M229.096 -567.761C110.924 -561.504 -125.465 -493.148 -125.643 -269.784C-95.8645 18.1389 405.5 4.7834 330.338 278.609C255.176 552.435 -176.616 534.063 -107.909 783.263C-50.0131 995.474 318.355 902.387 369.589 1077.46C421.43 1248.1 261.223 1388.47 196.226 1437.05" stroke="#3F71F4" stroke-width="3.11629"/>
<path d="M210.436 -574.142C97.062 -567.613 -129.596 -500.865 -129.24 -286.107C-99.3757 -3.41499 414.664 -14.0995 339.317 259.133C263.969 532.365 -166.747 514.017 -100.303 762.525C-44.101 975.991 324.848 889.403 371.704 1067.48C419.472 1238.92 258.367 1380 192.294 1428.86" stroke="#4776F3" stroke-width="3.11629"/>
<path d="M191.778 -580.524C83.2022 -573.722 -133.727 -508.582 -132.836 -302.431C-102.885 -24.97 423.83 -32.9833 348.297 239.655C272.764 512.294 -156.876 493.97 -92.6953 741.787C-38.1871 956.508 331.343 876.418 373.821 1057.5C417.516 1229.73 255.513 1371.53 188.365 1420.66" stroke="#4F7CF3" stroke-width="3.11629"/>
<path d="M173.123 -586.904C69.3456 -579.83 -137.853 -516.297 -136.429 -318.754C-106.391 -46.5236 433 -51.8658 357.281 220.179C281.563 492.224 -147.002 473.924 -85.0841 721.049C-32.2699 937.025 337.841 863.434 375.942 1047.52C415.564 1220.55 252.663 1363.06 184.438 1412.46" stroke="#5781F2" stroke-width="3.11629"/>
<path d="M154.471 -593.285C55.4916 -585.94 -141.978 -524.015 -140.019 -335.078C-109.894 -68.0786 442.172 -70.7497 366.268 200.702C290.364 472.153 -137.125 453.877 -77.4703 700.31C-26.3502 917.542 344.342 850.449 378.065 1037.54C413.613 1211.36 249.815 1354.58 180.514 1404.26" stroke="#5F87F1" stroke-width="3.11629"/>
<path d="M135.82 -599.666C41.6386 -592.048 -146.101 -531.731 -143.608 -351.401C-113.397 -89.6323 451.345 -89.6323 375.255 181.226C299.166 452.083 -127.247 433.831 -69.8555 679.573C-20.4294 898.059 350.844 837.465 380.189 1027.56C411.664 1202.18 246.968 1346.11 176.591 1396.06" stroke="#678CF0" stroke-width="3.11629"/>
<path d="M117.174 -606.047C27.791 -598.157 -150.219 -539.447 -147.191 -367.725C-116.894 -111.187 460.523 -108.516 384.248 161.749C307.973 432.013 -117.364 413.784 -62.2353 658.835C-14.5033 878.576 357.351 824.481 382.319 1017.58C409.72 1192.99 244.126 1337.64 172.674 1387.86" stroke="#6F92EF" stroke-width="3.11629"/>
<path d="M98.5325 -612.428C13.9474 -604.266 -154.332 -547.164 -150.771 -384.048C-120.387 -132.741 469.705 -127.399 393.245 142.272C316.784 411.943 -107.477 393.738 -54.6111 638.097C-8.57315 859.093 363.863 811.496 384.452 1007.6C407.78 1183.8 241.288 1329.17 168.76 1379.66" stroke="#7797EE" stroke-width="3.11629"/>
<path d="M79.894 -618.808C0.106961 -610.375 -158.443 -554.88 -154.347 -400.371C-123.877 -154.295 478.891 -146.282 402.245 122.795C325.599 391.873 -97.5862 373.692 -46.9838 617.359C-2.6398 839.611 370.377 798.512 386.589 997.621C405.844 1174.62 238.454 1320.7 164.85 1371.46" stroke="#7F9DED" stroke-width="3.11629"/>
<path d="M61.262 -625.19C-13.7269 -616.485 -162.547 -562.597 -157.917 -416.696C-127.36 -175.85 488.083 -165.166 411.251 103.318C334.42 371.801 -87.6893 353.644 -39.3499 596.62C3.30002 820.127 376.898 785.526 388.732 987.64C403.913 1165.43 235.626 1312.23 160.946 1363.26" stroke="#87A2ED" stroke-width="3.11629"/>
<path d="M42.6366 -631.572C-27.5543 -622.594 -166.645 -570.314 -161.481 -433.019C-130.837 -197.405 497.282 -184.05 420.265 83.8404C343.248 351.73 -77.7858 333.597 -31.7094 575.881C9.24647 800.643 383.425 772.541 390.882 977.66C401.99 1156.25 232.805 1303.76 157.049 1355.07" stroke="#8FA8EC" stroke-width="3.11629"/>
<path d="M24.0196 -637.952C-41.3731 -628.702 -170.734 -578.03 -165.036 -449.342C-134.305 -218.959 506.489 -202.932 429.286 64.3643C352.084 331.661 -67.8739 313.551 -24.0604 555.144C15.2014 781.161 389.961 759.558 393.041 967.682C400.075 1147.06 229.992 1295.29 153.16 1346.87" stroke="#97ADEB" stroke-width="3.11629"/>
<path d="M5.41103 -644.333C-55.1836 -634.811 -174.815 -585.746 -168.582 -465.665C-137.765 -240.513 515.704 -221.815 438.316 44.8876C360.928 311.59 -57.9535 293.505 -16.4031 534.405C21.1647 761.678 396.506 746.573 395.207 957.702C398.168 1137.88 227.187 1286.82 149.28 1338.67" stroke="#9FB3EA" stroke-width="3.11629"/>
<path d="M-13.1839 -650.714C-68.9804 -640.92 -178.882 -593.463 -172.115 -481.989C-141.212 -262.068 524.933 -240.699 447.36 25.4102C369.786 291.519 -48.0196 273.458 -8.73216 513.667C27.1416 742.195 403.064 733.588 397.388 947.722C396.275 1128.69 224.396 1278.35 145.413 1330.47" stroke="#A7B8E9" stroke-width="3.11629"/>
<path d="M-31.7644 -657.095C-82.7628 -647.029 -182.934 -601.18 -175.633 -498.313C-144.643 -283.622 534.177 -259.582 456.418 5.93316C378.659 271.449 -38.0712 253.411 -1.04678 492.928C33.1329 722.712 409.636 720.603 399.582 937.742C394.396 1119.5 221.62 1269.87 141.561 1322.27" stroke="#AFBEE8" stroke-width="3.11629"/>
<path d="M-50.3246 -663.476C-96.5249 -653.138 -186.967 -608.897 -179.131 -514.636C-148.055 -305.177 543.441 -278.465 465.496 -13.5434C387.552 251.379 -28.1025 233.365 6.65896 472.19C39.1446 703.229 416.229 707.619 401.798 927.763C392.538 1110.32 218.864 1261.4 137.729 1314.07" stroke="#B7C3E7" stroke-width="3.11629"/>
<path d="M-68.8595 -669.857C-110.262 -659.246 -190.974 -616.613 -182.604 -530.959C-151.441 -326.73 552.73 -297.348 474.6 -33.0198C396.47 231.309 -18.1085 213.319 14.39 451.453C45.1815 683.746 422.847 694.635 404.038 917.784C390.705 1101.13 216.133 1252.93 133.922 1305.87" stroke="#BFC9E7" stroke-width="3.11629"/>
<path d="M-87.3572 -676.238C-123.961 -665.355 -194.944 -624.329 -186.04 -547.283C-154.79 -348.285 562.056 -316.232 483.741 -52.4968C405.425 211.238 -8.07728 193.272 22.1582 430.714C51.2557 664.263 429.502 681.65 406.316 907.804C388.909 1091.95 213.439 1244.46 130.153 1297.67" stroke="#C7CEE6" stroke-width="3.11629"/>
<path d="M-105.805 -682.619C-137.611 -671.464 -198.863 -632.046 -189.425 -563.606C-158.089 -369.839 571.433 -335.115 492.932 -71.9735C414.431 191.168 2.00423 173.225 29.9767 409.976C57.3801 644.78 436.208 668.666 408.643 897.825C387.163 1082.76 210.796 1235.99 126.433 1289.48" stroke="#CFD4E5" stroke-width="3.11629"/>
</g>
</g>
<defs>
<filter id="filter0_f_62_258" x="8.604" y="-52.6309" width="135.957" height="100.64" filterUnits="userSpaceOnUse" color-interpolation-filters="sRGB">
<feFlood flood-opacity="0" result="BackgroundImageFix"/>
<feBlend mode="normal" in="SourceGraphic" in2="BackgroundImageFix" result="shape"/>
<feGaussianBlur stdDeviation="2" result="effect1_foregroundBlur_62_258"/>
</filter>
<filter id="filter1_f_62_258" x="250.122" y="-162.878" width="165.792" height="285.174" filterUnits="userSpaceOnUse" color-interpolation-filters="sRGB">
<feFlood flood-opacity="0" result="BackgroundImageFix"/>
<feBlend mode="normal" in="SourceGraphic" in2="BackgroundImageFix" result="shape"/>
<feGaussianBlur stdDeviation="2" result="effect1_foregroundBlur_62_258"/>
</filter>
<filter id="filter2_f_62_258" x="-47.0571" y="63.943" width="255.386" height="206.577" filterUnits="userSpaceOnUse" color-interpolation-filters="sRGB">
<feFlood flood-opacity="0" result="BackgroundImageFix"/>
<feBlend mode="normal" in="SourceGraphic" in2="BackgroundImageFix" result="shape"/>
<feGaussianBlur stdDeviation="2" result="effect1_foregroundBlur_62_258"/>
</filter>
<linearGradient id="paint0_linear_62_258" x1="164.021" y1="253.659" x2="207.74" y2="80.3877" gradientUnits="userSpaceOnUse">
<stop stop-color="#D9D9D9"/>
<stop offset="1" stop-color="#D9D9D9" stop-opacity="0"/>
</linearGradient>
<linearGradient id="paint1_linear_62_258" x1="322.655" y1="539.009" x2="422.928" y2="164.073" gradientUnits="userSpaceOnUse">
<stop stop-color="#D9D9D9"/>
<stop offset="1" stop-color="#D9D9D9" stop-opacity="0"/>
</linearGradient>
<linearGradient id="paint2_linear_62_258" x1="73.4522" y1="450.999" x2="198.117" y2="165.43" gradientUnits="userSpaceOnUse">
<stop stop-color="#D9D9D9"/>
<stop offset="1" stop-color="#D9D9D9" stop-opacity="0"/>
</linearGradient>
<clipPath id="clip0_62_258">
<rect width="375" height="227" fill="white"/>
</clipPath>
</defs>
</svg>
