<svg width="263" height="223" viewBox="0 0 263 223" fill="none" xmlns="http://www.w3.org/2000/svg">
<path d="M37.1716 166.031C38.5438 167.403 38.5438 169.633 37.1716 171.013C35.7994 172.385 33.5696 172.385 32.1893 171.013C30.8171 169.641 30.8171 167.411 32.1893 166.031C33.5696 164.659 35.7994 164.659 37.1716 166.031Z" fill="#0166F4"/>
<path d="M32.965 72.0802C34.3372 73.4522 34.3372 75.6818 32.965 77.0619C31.5929 78.434 29.3631 78.434 27.9827 77.0619C26.6106 75.6899 26.6106 73.4604 27.9827 72.0802C29.3631 70.7082 31.5929 70.7082 32.965 72.0802Z" fill="#0166F4"/>
<path d="M220.005 152.932C221.377 154.304 221.377 156.533 220.005 157.913C218.633 159.285 216.403 159.285 215.023 157.913C213.651 156.541 213.651 154.312 215.023 152.932C216.403 151.56 218.633 151.56 220.005 152.932Z" fill="#0166F4"/>
<path d="M122.81 5.11242C124.182 6.48444 124.182 8.71399 122.81 10.0942C121.438 11.4662 119.208 11.4662 117.827 10.0942C116.455 8.72215 116.455 6.49261 117.827 5.11242C119.208 3.7404 121.438 3.7404 122.81 5.11242Z" fill="#0166F4"/>
<path d="M165.327 215.264C165.963 215.901 165.963 216.936 165.327 217.576C164.69 218.213 163.655 218.213 163.015 217.576C162.378 216.939 162.378 215.905 163.015 215.264C163.655 214.628 164.69 214.628 165.327 215.264Z" fill="#0166F4"/>
<path d="M59.1465 112.363C59.7832 112.999 59.7832 114.034 59.1465 114.674C58.5097 115.311 57.475 115.311 56.8345 114.674C56.1977 114.038 56.1977 113.003 56.8345 112.363C57.475 111.726 58.5097 111.726 59.1465 112.363Z" fill="#0166F4"/>
<path d="M202.898 24.9779C203.535 25.6146 203.535 26.6492 202.898 27.2896C202.262 27.9263 201.227 27.9263 200.586 27.2896C199.95 26.6529 199.95 25.6184 200.586 24.9779C201.227 24.3412 202.262 24.3412 202.898 24.9779Z" fill="#0166F4"/>
<path d="M235.867 56.9223C235.867 58.866 234.29 60.4422 232.346 60.4422C230.403 60.4422 228.826 58.866 228.826 56.9223C228.826 54.9786 230.403 53.4024 232.346 53.4024C234.29 53.4024 235.867 54.9705 235.867 56.9223Z" fill="#0166F4"/>
<path d="M59.4116 177.612C59.4116 178.11 59.0114 178.51 58.5132 178.51C58.015 178.51 57.6147 178.11 57.6147 177.612C57.6147 177.113 58.015 176.713 58.5132 176.713C59.0114 176.713 59.4116 177.113 59.4116 177.612Z" fill="#0166F4"/>
<path d="M78.5161 78.94C78.5161 79.4382 78.1159 79.8383 77.6177 79.8383C77.1195 79.8383 76.7192 79.4382 76.7192 78.94C76.7192 78.4418 77.1195 78.0416 77.6177 78.0416C78.1159 78.0416 78.5161 78.4418 78.5161 78.94Z" fill="#0166F4"/>
<path d="M218.176 126.904C218.176 127.402 217.776 127.802 217.277 127.802C216.779 127.802 216.379 127.402 216.379 126.904C216.379 126.406 216.779 126.006 217.277 126.006C217.776 126.006 218.176 126.406 218.176 126.904Z" fill="#0166F4"/>
<path d="M230.615 85.1798C230.615 85.6779 230.215 86.0781 229.717 86.0781C229.219 86.0781 228.818 85.6779 228.818 85.1798C228.818 84.6816 229.219 84.2814 229.717 84.2814C230.215 84.2896 230.615 84.6897 230.615 85.1798Z" fill="#0166F4"/>
<path d="M182.867 44.0093L127.31 23.5515L72.3003 43.7398C65.2761 47.1454 59.1177 49.1789 59.1177 55.892V89.3024C59.1177 112.504 65.0474 135.494 77.2418 155.788C87.5004 172.865 103.395 190.456 127.857 201.637C150.343 194.148 167.127 174.172 177.394 157.095C189.589 136.801 195.518 113.803 195.518 90.6091V60.5634C195.51 50.9838 190.569 46.3124 182.867 44.0093Z" fill="#CADEFF"/>
<g opacity="0.8">
<path d="M194.51 44.0093L126.49 23.5515L59.14 43.7398C50.54 47.1454 43 49.1789 43 55.892V89.3024C43 112.504 50.26 135.494 65.19 155.788C77.75 172.865 97.21 190.456 127.16 201.637C154.69 194.148 175.24 174.172 187.81 157.095C202.74 136.801 210 113.803 210 90.6091V60.5634C209.99 50.9838 203.94 46.3124 194.51 44.0093Z" fill="#0166F4" fill-opacity="0.03"/>
</g>
<path d="M193.899 177.206C193.899 177.206 194.135 176.907 194.603 176.349C194.724 176.208 194.855 176.05 195.002 175.877C195.133 175.696 195.258 175.481 195.408 175.251C195.7 174.791 196.06 174.277 196.33 173.611C196.476 173.283 196.648 172.948 196.796 172.579C196.921 172.2 197.054 171.806 197.189 171.387C197.348 170.978 197.435 170.524 197.531 170.055C197.62 169.585 197.765 169.101 197.807 168.58C198.127 166.518 198.113 164.097 197.826 161.41C197.26 156.019 195.288 149.603 192.143 142.584C189.007 135.548 184.583 127.935 179.088 119.96C173.586 111.977 166.913 103.684 159.181 95.3072C151.441 86.9382 142.633 78.4852 132.688 70.3945C127.715 66.3532 122.451 62.4205 116.883 58.6777C111.323 54.9353 105.435 51.406 99.1986 48.2934C92.961 45.2134 86.355 42.4836 79.3213 40.9925C75.8153 40.276 72.1813 39.8396 68.5736 40.214C66.7736 40.4055 64.9883 40.802 63.3042 41.4733C61.6345 42.1862 60.0905 43.1749 58.786 44.4531C57.5284 45.7745 56.5698 47.3393 55.8754 49.023C55.2454 50.7261 54.8648 52.5149 54.7125 54.3146C54.3992 57.93 54.9028 61.5601 55.6827 65.0564C57.2906 72.0675 60.147 78.6236 63.3319 84.8111C66.558 90.9925 70.1856 96.817 74.0337 102.309C77.8732 107.808 81.9072 113.006 86.0291 117.906C94.2974 127.707 102.907 136.363 111.413 143.951C119.927 151.531 128.337 158.06 136.419 163.412C144.494 168.764 152.186 173.05 159.277 176.065C166.351 179.087 172.795 180.934 178.194 181.406C180.889 181.642 183.31 181.62 185.364 181.26C185.881 181.212 186.363 181.047 186.834 180.955C187.305 180.855 187.751 180.754 188.16 180.585C188.576 180.442 188.967 180.305 189.349 180.176C189.716 180.022 190.044 179.842 190.37 179.686C191.03 179.407 191.538 179.039 191.986 178.733C192.206 178.58 192.425 178.452 192.603 178.313C192.774 178.166 192.928 178.026 193.064 177.91C193.61 177.446 193.899 177.206 193.899 177.206C193.899 177.206 193.625 177.463 193.086 177.96C192.949 178.085 192.796 178.224 192.625 178.372C192.446 178.51 192.235 178.647 192.007 178.8C191.559 179.105 191.05 179.481 190.391 179.769C190.072 179.925 189.737 180.105 189.369 180.267C188.994 180.405 188.595 180.541 188.179 180.693C187.77 180.861 187.316 180.962 186.845 181.07C186.374 181.17 185.891 181.335 185.366 181.383C183.304 181.758 180.865 181.796 178.161 181.568C172.737 181.119 166.26 179.287 159.16 176.28C152.044 173.28 144.334 169.009 136.236 163.665C128.129 158.312 119.702 151.79 111.163 144.217C102.641 136.628 94.0067 127.971 85.7143 118.161C81.5764 113.252 77.5343 108.054 73.687 102.546C69.8312 97.0452 66.188 91.2036 62.9546 85.0056C59.7542 78.8009 56.8826 72.2196 55.2611 65.1506C54.4824 61.6299 53.964 57.9663 54.2806 54.2857C54.4347 52.4451 54.8251 50.6242 55.4738 48.8728C56.1784 47.1487 57.1805 45.5289 58.473 44.1601C59.8207 42.8349 61.4234 41.8162 63.1351 41.0809C64.8689 40.3956 66.6958 39.9847 68.5284 39.7948C72.2017 39.4154 75.8761 39.8619 79.4062 40.5877C86.4967 42.0897 93.1264 44.837 99.388 47.9263C105.64 51.0479 111.536 54.5858 117.112 58.3453C122.687 62.0967 127.959 66.046 132.939 70.0958C142.892 78.2033 151.707 86.6812 159.446 95.0746C167.177 103.476 173.849 111.785 179.342 119.793C184.835 127.792 189.242 135.437 192.368 142.496C195.495 149.54 197.45 155.979 197.998 161.402C198.268 164.105 198.281 166.542 197.944 168.611C197.903 169.132 197.741 169.615 197.652 170.093C197.556 170.563 197.461 171.016 197.293 171.433C197.15 171.852 197.017 172.254 196.892 172.632C196.735 173.001 196.564 173.336 196.409 173.664C196.131 174.329 195.763 174.843 195.463 175.303C195.313 175.524 195.188 175.747 195.049 175.929C194.901 176.102 194.763 176.258 194.642 176.392C194.15 176.932 193.899 177.206 193.899 177.206Z" fill="#0166F4"/>
<path d="M223.056 115.427C223.056 115.427 223.033 115.05 223.011 114.321C223.003 114.141 222.997 113.936 222.991 113.707C222.969 113.485 222.916 113.237 222.879 112.974C222.791 112.438 222.715 111.813 222.477 111.139C222.371 110.798 222.274 110.434 222.145 110.06C221.983 109.692 221.821 109.308 221.645 108.907C221.484 108.499 221.259 108.096 221.017 107.683C220.767 107.271 220.56 106.811 220.245 106.395C219.111 104.64 217.489 102.844 215.483 101.031C211.472 97.3871 205.736 93.9058 198.716 90.7634C191.689 87.6043 183.325 84.8635 173.91 82.5708C164.494 80.2782 153.989 78.5301 142.644 77.4284C131.298 76.3349 119.094 75.8953 106.285 76.4732C99.8849 76.7706 93.3322 77.3386 86.6892 78.2539C80.0466 79.1611 73.304 80.4478 66.5761 82.2749C59.8711 84.1358 53.1181 86.485 46.8783 90.0609C43.7825 91.8582 40.7786 93.9543 38.3353 96.6335C37.1177 97.9732 36.0566 99.4595 35.2343 101.08C34.468 102.728 33.9658 104.494 33.8454 106.312C33.7903 108.133 34.1117 109.947 34.7163 111.653C35.3788 113.345 36.2838 114.925 37.375 116.376C39.5488 119.286 42.3375 121.652 45.2456 123.746C51.1125 127.904 57.6078 130.899 64.1027 133.394C70.6236 135.859 77.2112 137.786 83.7358 139.327C90.26 140.875 96.7276 142.069 103.07 142.979C115.764 144.784 127.953 145.517 139.352 145.517C150.751 145.509 161.375 144.777 170.968 143.399C180.561 142.02 189.15 140.095 196.448 137.624C203.738 135.17 209.782 132.255 214.125 129.013C216.296 127.401 218.084 125.769 219.381 124.131C219.735 123.747 219.985 123.309 220.274 122.923C220.554 122.535 220.826 122.156 221.016 121.764C221.231 121.382 221.437 121.016 221.625 120.665C221.79 120.305 221.921 119.952 222.06 119.623C222.361 118.975 222.497 118.36 222.637 117.836C222.707 117.577 222.775 117.335 222.819 117.116C222.846 116.889 222.872 116.686 222.897 116.507C222.997 115.792 223.056 115.427 223.056 115.427C223.056 115.427 223.029 115.802 222.945 116.526C222.928 116.713 222.902 116.916 222.875 117.136C222.84 117.363 222.763 117.596 222.701 117.863C222.569 118.388 222.441 119.012 222.14 119.668C222.001 119.996 221.877 120.358 221.713 120.719C221.524 121.069 221.318 121.444 221.112 121.826C220.912 122.226 220.649 122.605 220.368 123.001C220.08 123.388 219.829 123.833 219.475 124.217C218.185 125.872 216.389 127.519 214.225 129.149C209.872 132.423 203.826 135.371 196.527 137.849C189.219 140.343 180.621 142.293 171.019 143.696C161.409 145.098 150.776 145.846 139.359 145.869C127.943 145.885 115.737 145.167 103.019 143.369C96.6598 142.459 90.1836 141.272 83.6431 139.723C77.1022 138.182 70.4982 136.253 63.9532 133.78C57.4339 131.283 50.9145 128.279 45.0003 124.086C42.0685 121.974 39.2483 119.582 37.0357 116.63C35.9293 115.154 35.0019 113.531 34.325 111.797C33.7064 110.042 33.3715 108.17 33.4297 106.284C33.5533 104.401 34.0664 102.577 34.8596 100.882C35.7005 99.2134 36.7876 97.6957 38.0309 96.3326C40.5255 93.6069 43.5628 91.496 46.6757 89.6832C52.9657 86.0851 59.744 83.7208 66.4734 81.8611C73.218 80.0266 79.977 78.7407 86.6359 77.8343C93.2952 76.9198 99.8556 76.3603 106.273 76.0638C119.097 75.4948 131.324 75.9519 142.678 77.0621C154.039 78.1808 164.551 79.9456 173.982 82.2635C183.404 84.5811 191.783 87.3472 198.817 90.5311C205.844 93.7065 211.587 97.2127 215.596 100.889C217.601 102.719 219.223 104.531 220.356 106.302C220.671 106.718 220.877 107.186 221.127 107.599C221.369 108.019 221.594 108.422 221.754 108.839C221.931 109.248 222.092 109.632 222.246 109.999C222.375 110.373 222.472 110.746 222.57 111.086C222.807 111.768 222.875 112.393 222.955 112.936C222.991 113.208 223.045 113.448 223.058 113.677C223.063 113.906 223.062 114.111 223.069 114.291C223.065 115.051 223.056 115.427 223.056 115.427Z" fill="#0166F4"/>
<path d="M192.239 35.2945C192.239 35.2945 191.93 35.0835 191.338 34.6543C191.188 34.549 191.022 34.4265 190.84 34.2951C190.65 34.1715 190.426 34.0626 190.187 33.9367C189.709 33.6766 189.168 33.3562 188.492 33.1356C188.154 33.0131 187.81 32.8657 187.432 32.7412C187.044 32.6408 186.64 32.5396 186.212 32.4291C185.793 32.3027 185.338 32.2399 184.859 32.176C184.379 32.1202 183.894 32.0069 183.371 31.9981C181.295 31.8165 178.874 32.0027 176.218 32.48C170.874 33.4168 164.617 35.8225 157.828 39.4453C151.03 43.0595 143.735 47.999 136.151 54.0284C128.566 60.066 120.752 67.2945 112.928 75.5854C105.111 83.885 97.2842 93.2551 89.894 103.734C86.2069 108.977 82.6374 114.497 79.2906 120.313C75.9361 126.121 72.8202 132.234 70.1467 138.671C67.5058 145.11 65.233 151.885 64.2353 159.008C63.7616 162.559 63.5772 166.213 64.1896 169.791C64.5043 171.572 65.025 173.323 65.8044 174.963C66.6344 176.573 67.724 178.056 69.0883 179.266C70.4959 180.43 72.1227 181.285 73.8452 181.85C75.5868 182.359 77.3977 182.617 79.2115 182.647C82.8391 182.707 86.424 181.956 89.858 180.944C96.7373 178.854 103.086 175.553 109.041 171.948C114.989 168.309 120.547 164.284 125.763 160.07C130.986 155.865 135.891 151.481 140.497 147.025C149.701 138.106 157.748 128.91 164.732 119.908C171.708 110.889 177.638 102.049 182.427 93.6206C187.216 85.1919 190.961 77.2281 193.479 69.9493C196.004 62.6873 197.408 56.1236 197.506 50.7072C197.554 48.0031 197.368 45.5902 196.869 43.5629C196.787 43.0521 196.589 42.5846 196.464 42.1208C196.331 41.6565 196.197 41.2167 196.004 40.8231C195.835 40.4225 195.666 40.03 195.511 39.671C195.332 39.319 195.127 38.9984 194.954 38.6875C194.625 38.0503 194.223 37.5649 193.9 37.1405C193.73 36.928 193.593 36.7251 193.438 36.5541C193.274 36.3909 193.133 36.2533 193.001 36.1161C192.496 35.5685 192.239 35.2945 192.239 35.2945C192.239 35.2945 192.513 35.5448 193.045 36.0528C193.178 36.1819 193.326 36.3198 193.49 36.4831C193.645 36.6541 193.791 36.8573 193.961 37.0699C194.292 37.4946 194.71 37.9808 195.039 38.618C195.22 38.9293 195.425 39.2499 195.605 39.6019C195.767 39.9695 195.936 40.3538 196.113 40.7629C196.306 41.1647 196.448 41.6049 196.581 42.0691C196.714 42.5334 196.912 43.0008 196.994 43.5199C197.509 45.5561 197.711 47.9779 197.678 50.691C197.604 56.133 196.215 62.722 193.713 70.0096C191.21 77.3136 187.481 85.3027 182.698 93.7563C177.916 102.21 171.994 111.075 165.017 120.11C158.032 129.136 149.983 138.348 140.77 147.292C136.156 151.755 131.251 156.147 126.018 160.368C120.794 164.598 115.219 168.631 109.262 172.285C103.29 175.907 96.9239 179.223 89.9867 181.326C86.5275 182.353 82.9096 183.111 79.2082 183.056C77.3618 183.025 75.5182 182.764 73.7284 182.237C71.9577 181.653 70.275 180.77 68.8205 179.564C67.4091 178.311 66.2808 176.785 65.4287 175.125C64.6267 173.443 64.0917 171.651 63.7785 169.837C63.153 166.193 63.3471 162.506 63.822 158.931C64.8306 151.752 67.1209 144.953 69.7708 138.498C72.4533 132.045 75.578 125.915 78.9493 120.1C82.3046 114.276 85.8827 108.749 89.5783 103.498C96.9852 93.0118 104.837 83.6347 112.67 75.3359C120.519 67.0461 128.357 59.8188 135.967 53.7824C143.576 47.7542 150.894 42.8241 157.716 39.2191C164.53 35.6056 170.818 33.2179 176.186 32.2986C178.865 31.8387 181.294 31.6612 183.378 31.8595C183.901 31.8683 184.393 31.9901 184.873 32.0458C185.353 32.1098 185.807 32.1807 186.234 32.3075C186.662 32.4181 187.066 32.5274 187.453 32.6278C187.831 32.7605 188.184 32.9082 188.513 33.0385C189.197 33.2677 189.737 33.6043 190.207 33.864C190.445 33.9982 190.669 34.1152 190.859 34.2388C191.04 34.3784 191.206 34.5008 191.348 34.6139C191.948 35.0598 192.239 35.2945 192.239 35.2945Z" fill="#0166F4"/>
<circle cx="128" cy="111" r="29" stroke="#0166F4" stroke-width="2"/>
<path d="M118.156 112.406L124.719 118.969L137.844 104.906" stroke="#0166F4" stroke-width="2.5" stroke-linecap="round" stroke-linejoin="round"/>
</svg>
