<svg width="24" height="22" viewBox="0 0 24 22" fill="none" xmlns="http://www.w3.org/2000/svg">
<path fill-rule="evenodd" clip-rule="evenodd" d="M11 6C11 4.93913 11.4214 3.92172 12.1716 3.17157C12.9217 2.42143 13.9391 2 15 2C16.0609 2 17.0783 2.42143 17.8284 3.17157C18.5786 3.92172 19 4.93913 19 6C19 7.06087 18.5786 8.07828 17.8284 8.82843C17.0783 9.57857 16.0609 10 15 10C13.9391 10 12.9217 9.57857 12.1716 8.82843C11.4214 8.07828 11 7.06087 11 6ZM11 12C9.67392 12 8.40215 12.5268 7.46447 13.4645C6.52678 14.4021 6 15.6739 6 17C6 17.7956 6.31607 18.5587 6.87868 19.1213C7.44129 19.6839 8.20435 20 9 20H21C21.7956 20 22.5587 19.6839 23.1213 19.1213C23.6839 18.5587 24 17.7956 24 17C24 15.6739 23.4732 14.4021 22.5355 13.4645C21.5979 12.5268 20.3261 12 19 12H11Z" fill="#92BAF4"/>
<path d="M5.64124 2.64124C4.75044 3.53204 4.25 4.74022 4.25 6C4.25 7.25978 4.75044 8.46796 5.64124 9.35876C6.53204 10.2496 7.74022 10.75 9 10.75C10.2598 10.75 11.468 10.2496 12.3588 9.35876C13.2496 8.46796 13.75 7.25978 13.75 6C13.75 4.74022 13.2496 3.53204 12.3588 2.64124C11.468 1.75044 10.2598 1.25 9 1.25C7.74022 1.25 6.53204 1.75044 5.64124 2.64124ZM5 11.25C3.47501 11.25 2.01247 11.8558 0.934136 12.9341C-0.144198 14.0125 -0.75 15.475 -0.75 17C-0.75 17.9946 -0.354912 18.9484 0.34835 19.6517C1.05161 20.3549 2.00544 20.75 3 20.75H15C15.9946 20.75 16.9484 20.3549 17.6517 19.6517C18.3549 18.9484 18.75 17.9946 18.75 17C18.75 15.475 18.1442 14.0125 17.0659 12.9341C15.9875 11.8558 14.525 11.25 13 11.25H5Z" fill="#92BAF4" stroke="white" stroke-width="1.5"/>
</svg>
